# xmcd CD database file generated by Grip 2.7
# 
# Track frame offsets:
#       150
#       31254
#       49833
#       67642
#       83474
#       106254
#       122086
#       144536
#       163997
#       185169
#       200655
#       221473
#       234897
#       256904
#       275709
#       300700
# 
# Disc length: 4368 seconds
# 
# Revision: 3
# Processed by: cddbd v1.4b41PL1 Copyright (c) Steve Scherf et al.
# Submitted via: Grip 2.7
# 
DISCID=df110e10
DTITLE=Various Artist - Goths' Paradise II The Black Book Compilation [CD1)
DYEAR=1900
DGENRE=
TTITLE0=Morthem Vlade Art - Surrender
TTITLE1=L'âme Immortelle - To Everlasting Oblivion
TTITLE2=Engelsstaub - Eden's Rising
TTITLE3=Corvus Corax - Bacchus
TTITLE4=Inkubus Sukkubus - Io Pan
TTITLE5=Dargaard - Arcanum Mortis
TTITLE6=Christian Death - Millenium Unwind
TTITLE7=London After Midnight - Where Good Girls Go To Die
TTITLE8=The Frozen Autumn - There's No Time To Recall
TTITLE9=Impressions Of Winter - Ghosts of the Forest
TTITLE10=Shadow Project - Forever Came Today
TTITLE11=Sanguis Et Cinis - Reprise
TTITLE12=Hexedene - Turn
TTITLE13=Nekromantik - My Bleeding Hands
TTITLE14=Morthem Vlade Art - Barbaric Breath
TTITLE15=Elend - O Solitude
EXTD=entered: mail@martin-sander.de
EXTT0=
EXTT1=
EXTT2=
EXTT3=
EXTT4=
EXTT5=
EXTT6=
EXTT7=
EXTT8=
EXTT9=
EXTT10=
EXTT11=
EXTT12=
EXTT13=
EXTT14=
EXTT15=
PLAYORDER=
